<?xml version="1.0" encoding="utf-8"?>
<?xml-stylesheet type="text/xsl" href="rss1.xsl"?>
<rss version="2.0" xmlns:atom="http://www.w3.org/2005/Atom" xmlns:content="http://purl.org/rss/1.0/modules/content/" xmlns:dc="http://purl.org/dc/elements/1.1/" xmlns:media="http://search.yahoo.com/mrss/">
<channel>
 <title>Getty</title>
 <link>http://www.gettyimg.com/</link>
 <atom:link href="http://www.gettyimg.com/" rel="self" type="application/rss+xml" />

 
                <item>
                <title><![CDATA[【Interviews / TV shows / Others】FEED - 75th Primetime Emmy Awards (+ Red Carpet) FEED HDTV H264 1080i MP2-ilya2129]]></title>
                <link><![CDATA[https://sharemania.us/threads/75th-primetime-emmy-awards-red-carpet-feed-hdtv-h264-1080i-mp2-ilya2129.235902/]]></link>
                <description><![CDATA[<article>
<blockquote class="messageText SelectQuoteContainer ugc baseHtml">
<div style="text-align: center"><img src="https://i122.fastpic.org/big/2024/0116/09/58f93cc3bf1f85d4a536c91eac825309.png?r=1" class="bbCodeImage LbImage" alt="[​IMG]" data-url="https://i122.fastpic.org/big/2024/0116/09/58f93cc3bf1f85d4a536c91eac825309.png?r=1" style=""><br>
<br>
<a href="https://postimg.cc/cr5y9Lgf" target="_blank" class="externalLink" rel="nofollow"><img src="https://i.postimg.cc/cr5y9Lgf/vlcsnap-2024-01-16-14h59m29s770.png" class="bbCodeImage LbImage" alt="[​IMG]" data-url="https://i.postimg.cc/cr5y9Lgf/vlcsnap-2024-01-16-14h59m29s770.png"></a> <a href="https://postimg.cc/5QNTghfP" target="_blank" class="externalLink" rel="nofollow"><img src="https://i.postimg.cc/5QNTghfP/vlcsnap-2024-01-16-14h59m32s075.png" class="bbCodeImage LbImage" alt="[​IMG]" data-url="https://i.postimg.cc/5QNTghfP/vlcsnap-2024-01-16-14h59m32s075.png"></a> <a href="https://postimg.cc/18NTvcZZ" target="_blank" class="externalLink" rel="nofollow"><img src="https://i.postimg.cc/18NTvcZZ/vlcsnap-2024-01-16-14h59m34s947.png" class="bbCodeImage LbImage" alt="[​IMG]" data-url="https://i.postimg.cc/18NTvcZZ/vlcsnap-2024-01-16-14h59m34s947.png"></a> <a href="https://postimg.cc/fJPp7qpK" target="_blank" class="externalLink" rel="nofollow"><img src="https://i.postimg.cc/fJPp7qpK/vlcsnap-2024-01-16-14h59m43s258.png" class="bbCodeImage LbImage" alt="[​IMG]" data-url="https://i.postimg.cc/fJPp7qpK/vlcsnap-2024-01-16-14h59m43s258.png"></a> <a href="https://postimg.cc/vD3pTZvC" target="_blank" class="externalLink" rel="nofollow"><img src="https://i.postimg.cc/vD3pTZvC/vlcsnap-2024-01-16-14h59m45s827.png" class="bbCodeImage LbImage" alt="[​IMG]" data-url="https://i.postimg.cc/vD3pTZvC/vlcsnap-2024-01-16-14h59m45s827.png"></a> <a href="https://postimg.cc/dL3gycH3" target="_blank" class="externalLink" rel="nofollow"><img src="https://i.postimg.cc/dL3gycH3/vlcsnap-2024-01-16-14h59m50s313.png" class="bbCodeImage LbImage" alt="[​IMG]" data-url="https://i.postimg.cc/dL3gycH3/vlcsnap-2024-01-16-14h59m50s313.png"></a><br>
<br>
<a href="https://postimg.cc/CZT2XBFn" target="_blank" class="externalLink" rel="nofollow"><img src="https://i.postimg.cc/CZT2XBFn/vlcsnap-2024-01-16-15h00m02s267.png" class="bbCodeImage LbImage" alt="[​IMG]" data-url="https://i.postimg.cc/CZT2XBFn/vlcsnap-2024-01-16-15h00m02s267.png"></a> <a href="https://postimg.cc/bDR4QyfD" target="_blank" class="externalLink" rel="nofollow"><img src="https://i.postimg.cc/bDR4QyfD/vlcsnap-2024-01-16-15h00m04s290.png" class="bbCodeImage LbImage" alt="[​IMG]" data-url="https://i.postimg.cc/bDR4QyfD/vlcsnap-2024-01-16-15h00m04s290.png"></a> <a href="https://postimg.cc/vDQJGV5W" target="_blank" class="externalLink" rel="nofollow"><img src="https://i.postimg.cc/vDQJGV5W/vlcsnap-2024-01-16-15h00m06s764.png" class="bbCodeImage LbImage" alt="[​IMG]" data-url="https://i.postimg.cc/vDQJGV5W/vlcsnap-2024-01-16-15h00m06s764.png"></a> <a href="https://postimg.cc/bDLFZm11" target="_blank" class="externalLink" rel="nofollow"><img src="https://i.postimg.cc/bDLFZm11/vlcsnap-2024-01-16-15h00m09s179.png" class="bbCodeImage LbImage" alt="[​IMG]" data-url="https://i.postimg.cc/bDLFZm11/vlcsnap-2024-01-16-15h00m09s179.png"></a> <a href="https://postimg.cc/1nyjRkV9" target="_blank" class="externalLink" rel="nofollow"><img src="https://i.postimg.cc/1nyjRkV9/vlcsnap-2024-01-16-15h00m12s792.png" class="bbCodeImage LbImage" alt="[​IMG]" data-url="https://i.postimg.cc/1nyjRkV9/vlcsnap-2024-01-16-15h00m12s792.png"></a> <a href="https://postimg.cc/zVyPfSvR" target="_blank" class="externalLink" rel="nofollow"><img src="https://i.postimg.cc/zVyPfSvR/vlcsnap-2024-01-16-15h00m16s525.png" class="bbCodeImage LbImage" alt="[​IMG]" data-url="https://i.postimg.cc/zVyPfSvR/vlcsnap-2024-01-16-15h00m16s525.png"></a> <br>
<br>
​</div><br>
<div class="bbCodeBlock bbCodeCode">
<div class="type">Code:</div>
<pre>General
ID                                       : 1 (0x1)
Complete name                            : F:\75th Primetime Emmy Awards FEED\75th Primetime Emmy Awards FEED HDTV H264 1080i MP2-ilya2129.ts
Format                                   : MPEG-TS
File size                                : 25.7 GiB
Duration                                 : 2 h 5 min
Overall bit rate mode                    : Variable
Overall bit rate                         : 29.4 Mb/s
Frame rate                               : 25.000 FPS

Video
ID                                       : 101 (0x65)
Menu ID                                  : 1 (0x1)
Format                                   : AVC
Format/Info                              : Advanced Video Codec
Format profile                           : High@L4.1
Format settings                          : CABAC / 4 Ref Frames
Format settings, CABAC                   : Yes
Format settings, Reference frames        : 4 frames
Codec ID                                 : 27
Duration                                 : 2 h 5 min
Bit rate                                 : 27.2 Mb/s
Width                                    : 1 920 pixels
Height                                   : 1 080 pixels
Display aspect ratio                     : 16:9
Frame rate                               : 25.000 FPS
Color space                              : YUV
Chroma subsampling                       : 4:2:0
Bit depth                                : 8 bits
Scan type                                : Interlaced
Scan type, store method                  : Separated fields
Scan order                               : Top Field First
Bits/(Pixel*Frame)                       : 0.524
Stream size                              : 23.8 GiB (92%)
Color range                              : Limited
Color primaries                          : BT.709
Transfer characteristics                 : BT.709
Matrix coefficients                      : BT.709

Audio #1
ID                                       : 102 (0x66)
Menu ID                                  : 1 (0x1)
Format                                   : MPEG Audio
Format version                           : Version 1
Format profile                           : Layer 2
Codec ID                                 : 3
Duration                                 : 2 h 5 min
Bit rate mode                            : Constant
Bit rate                                 : 384 kb/s
Channel(s)                               : 2 channels
Sampling rate                            : 48.0 kHz
Frame rate                               : 41.667 FPS (1152 SPF)
Compression mode                         : Lossy
Delay relative to video                  : -120 ms
Stream size                              : 344 MiB (1%)
Language                                 : English

Audio #2
ID                                       : 103 (0x67)
Menu ID                                  : 1 (0x1)
Format                                   : MPEG Audio
Format version                           : Version 1
Format profile                           : Layer 2
Codec ID                                 : 3
Duration                                 : 2 h 5 min
Bit rate mode                            : Constant
Bit rate                                 : 384 kb/s
Channel(s)                               : 2 channels
Sampling rate                            : 48.0 kHz
Frame rate                               : 41.667 FPS (1152 SPF)
Compression mode                         : Lossy
Delay relative to video                  : -120 ms
Stream size                              : 344 MiB (1%)
Language                                 : English
</pre>
</div><div style="text-align: center">
<div class="bbCodeBlock bbCodeVfcHH HiddenContent">
<div class="attribution type">Hidden Content:</div>
<blockquote>You must reply before you can see the hidden data contained here.</blockquote>
</div></div>
<div class="messageTextEndMarker">&nbsp;</div>
</blockquote>
</article>]]></description>
                <author><![CDATA[ilya2129]]></author>
                </item>

                
                <item>
                <title><![CDATA[【HD Live Performances】UPSCALE - Taylor Swift - The Eras Tour Extended 2023 2160p AMZN WEB-DL H265 HDR10 [HEVC + AAC]]]></title>
                <link><![CDATA[https://sharemania.us/threads/taylor-swift-the-eras-tour-extended-2023-2160p-amzn-web-dl-h265-hdr10-hevc-aac.235904/]]></link>
                <description><![CDATA[<article>
<blockquote class="messageText SelectQuoteContainer ugc baseHtml">
Thanks!
<div class="messageTextEndMarker">&nbsp;</div>
</blockquote>
</article>]]></description>
                <author><![CDATA[exampleabc853]]></author>
                </item>

                
                <item>
                <title><![CDATA[【Interviews / TV shows / Others】HDTV - 75th Primetime Emmy Awards HDTV MPEG2 720p DD5.1-ilya2129]]></title>
                <link><![CDATA[https://sharemania.us/threads/75th-primetime-emmy-awards-hdtv-mpeg2-720p-dd5-1-ilya2129.235903/]]></link>
                <description><![CDATA[<article>
<blockquote class="messageText SelectQuoteContainer ugc baseHtml">
<span style="text-decoration: underline"><b>Taylor Swift - The Eras Tour Extended 2023 2160p AMZN WEB-DL H265 HDR10 [HEVC + AAC]</b></span><br>
<img src="https://imgur.com/J52muSX.jpg" class="bbCodeImage LbImage" alt="[​IMG]" data-url="https://imgur.com/J52muSX.jpg" style=""><br>
After a month of deciding if I should share what I had been working on, I have decided to share that I have upscaled / remapped the eras tour extended film souced from AMZN from SDR into HDR10, and organized them into their individual eras.<br>
<br>
Unfortunately, I was only able to do the individual songs one by one and not the full thing all at once, so i skipped the talking segments between the songs, but kept most of the transitions between the eras.<br>
<br>
I know this isnt an official HDR release so there may be flaws but I hope it helps anyone out there looking to watch it in HDR10 instead of the Dolby Vision version shared a few days ago. <br>
<br>
Extra: I'm not sure what or how it happened with my encoding software, but the overall bitrate of the film has increased from 21.2Mb/s to around 36-37Mb/s, and I didnt encode it with the Dolby Atmos EA3 audio. <br>
<br>
<div class="ToggleTriggerAnchor bbCodeSpoilerContainer">
<button type="button" class="button bbCodeSpoilerButton ToggleTrigger Tooltip JsOnly" data-target="> .SpoilerTarget"><span>Spoiler: <span class="SpoilerTitle">SOURCE FILE</span></span></button>
<div class="SpoilerTarget bbCodeSpoilerText">taylor.swift.the.eras.tour.extended.2023.2160p.web.h265-playersgonnaplayplayplayplayplayandthehatersgonnahatehatehatehatehate.mkv<br>
/<br>
Taylor.Swift.The.Eras.Tour.Extended.2023.2160p.WEB.H265-Play.mkv<br>
<br>
Size: 27610M<br>
Date: 2023-12-13<br>
Duration: 3 h 1 min<br>
Source: Web<br>
Encoding: H265<br>
Bitrate: 21.2 Mb/s<br>
Audio Format: E-AC-3 (Dolby Digital Plus with Dolby Atmos)<br>
Audio Rate: 768 kb/s @ 6 channels<br>
Audio Lang: English</div>
</div><br>
<div class="ToggleTriggerAnchor bbCodeSpoilerContainer">
<button type="button" class="button bbCodeSpoilerButton ToggleTrigger Tooltip JsOnly" data-target="> .SpoilerTarget"><span>Spoiler: <span class="SpoilerTitle">TRACKLIST</span></span></button>
<div class="SpoilerTarget bbCodeSpoilerText"><span style="text-decoration: underline">Lover Era</span><br>
<ol>
<li>Taylor.Swift.The.Eras.Tour.Extended.2023.2160p.web.h265.HDR.Remaster.Miss.Americana.mov</li>
<li>Taylor.Swift.The.Eras.Tour.Extended.2023.2160p.web.h265.HDR.Remaster.Cruel.Summer.mov</li>
<li>Taylor.Swift.The.Eras.Tour.Extended.2023.2160p.web.h265.HDR.Remaster.The.Man.mov</li>
<li>Taylor.Swift.The.Eras.Tour.Extended.2023.2160p.web.h265.HDR.Remaster.You.Need.To.Calm.Down.mov</li>
<li>Taylor.Swift.The.Eras.Tour.Extended.2023.2160p.web.h265.HDR.Remaster.The.Archer.mov</li>
</ol><br>
<span style="text-decoration: underline">Fearless Era</span><br>
<ol>
<li>Taylor.Swift.The.Eras.Tour.Extended.2023.2160p.web.h265.HDR.Remaster.Fearless.mov</li>
<li>Taylor.Swift.The.Eras.Tour.Extended.2023.2160p.web.h265.HDR.Remaster.You.Belong.With.Me.mov</li>
<li>Taylor.Swift.The.Eras.Tour.Extended.2023.2160p.web.h265.HDR.Remaster.Love.Story.mov</li>
</ol><br>
<span style="text-decoration: underline">Evermore Era</span><br>
<ol>
<li>Taylor.Swift.The.Eras.Tour.Extended.2023.2160p.web.h265.HDR.Remaster.Willow.mov</li>
<li>Taylor.Swift.The.Eras.Tour.Extended.2023.2160p.web.h265.HDR.Remaster.Marjorie.mov</li>
<li>Taylor.Swift.The.Eras.Tour.Extended.2023.2160p.web.h265.HDR.Remaster.Champagne.Problems.mov</li>
<li>Taylor.Swift.The.Eras.Tour.Extended.2023.2160p.web.h265.HDR.Remaster.Tolerate.It.mov</li>
</ol><br>
<span style="text-decoration: underline">Reputation Era</span><br>
<ol>
<li>Taylor.Swift.The.Eras.Tour.Extended.2023.2160p.web.h265.HDR.Remaster.Ready.For.It.mov</li>
<li>Taylor.Swift.The.Eras.Tour.Extended.2023.2160p.web.h265.HDR.Remaster.Delicate.mov</li>
<li>Taylor.Swift.The.Eras.Tour.Extended.2023.2160p.web.h265.HDR.Remaster.Dont.Blame.Me.mov</li>
<li>Taylor.Swift.The.Eras.Tour.Extended.2023.2160p.web.h265.HDR.Remaster.Look.What.You.Made.Me.Do.mov</li>
</ol><br>
<span style="text-decoration: underline">Speak Now Era</span><br>
<ol>
<li>Taylor.Swift.The.Eras.Tour.Extended.2023.2160p.web.h265.HDR.Remaster.Enchanted.mov</li>
<li>Taylor.Swift.The.Eras.Tour.Extended.2023.2160p.web.h265.HDR.Remaster.Long.Live.mov</li>
</ol><br>
<span style="text-decoration: underline">Red Era</span><br>
<ol>
<li>Taylor.Swift.The.Eras.Tour.Extended.2023.2160p.web.h265.HDR.Remaster.22.mov</li>
<li>Taylor.Swift.The.Eras.Tour.Extended.2023.2160p.web.h265.HDR.Remaster.We.Are.Never.Ever.Getting.Back.Together.mov</li>
<li>Taylor.Swift.The.Eras.Tour.Extended.2023.2160p.web.h265.HDR.Remaster.All.Too.Well.mov</li>
</ol><br>
<span style="text-decoration: underline">Folklore Era</span><br>
<ol>
<li>Taylor.Swift.The.Eras.Tour.Extended.2023.2160p.web.h265.HDR.Remaster.The.One.mov</li>
<li>Taylor.Swift.The.Eras.Tour.Extended.2023.2160p.web.h265.HDR.Remaster.Betty.mov</li>
<li>Taylor.Swift.The.Eras.Tour.Extended.2023.2160p.web.h265.HDR.Remaster.The.Last.Great.American.Dynasty.mov</li>
<li>Taylor.Swift.The.Eras.Tour.Extended.2023.2160p.web.h265.HDR.Remaster.August.mov</li>
<li>Taylor.Swift.The.Eras.Tour.Extended.2023.2160p.web.h265.HDR.Remaster.Illicit.Affairs.mov</li>
<li>Taylor.Swift.The.Eras.Tour.Extended.2023.2160p.web.h265.HDR.Remaster.My.Tears.Ricochet.mov</li>
</ol><br>
<span style="text-decoration: underline">1989 Era</span><br>
<ol>
<li>Taylor.Swift.The.Eras.Tour.Extended.2023.2160p.web.h265.HDR.Remaster.Style.mov</li>
<li>Taylor.Swift.The.Eras.Tour.Extended.2023.2160p.web.h265.HDR.Remaster.Blank.Space.mov</li>
<li>Taylor.Swift.The.Eras.Tour.Extended.2023.2160p.web.h265.HDR.Remaster.Shake.It.Off.mov</li>
<li>Taylor.Swift.The.Eras.Tour.Extended.2023.2160p.web.h265.HDR.Remaster.Wildest.Dreams.mov</li>
<li>Taylor.Swift.The.Eras.Tour.Extended.2023.2160p.web.h265.HDR.Remaster.Bad.Blood.mov</li>
</ol><br>
<span style="text-decoration: underline">Surprise Songs Era</span><br>
<ol>
<li>Taylor.Swift.The.Eras.Tour.Extended.2023.2160p.web.h265.HDR.Remaster.Our.Song.mov</li>
<li>Taylor.Swift.The.Eras.Tour.Extended.2023.2160p.web.h265.HDR.Remaster.Youre.On.Your.Own.Kid.mov</li>
</ol><br>
<span style="text-decoration: underline">Midnights Era</span><br>
<ol>
<li>Taylor.Swift.The.Eras.Tour.Extended.2023.2160p.web.h265.HDR.Remaster.Lavender.Haze.mov</li>
<li>Taylor.Swift.The.Eras.Tour.Extended.2023.2160p.web.h265.HDR.Remaster.Anti.Hero.mov</li>
<li>Taylor.Swift.The.Eras.Tour.Extended.2023.2160p.web.h265.HDR.Remaster.Midnight.Rain.mov</li>
<li>Taylor.Swift.The.Eras.Tour.Extended.2023.2160p.web.h265.HDR.Remaster.Vigilante.Shit.mov</li>
<li>Taylor.Swift.The.Eras.Tour.Extended.2023.2160p.web.h265.HDR.Remaster.Bejeweled.mov</li>
<li>Taylor.Swift.The.Eras.Tour.Extended.2023.2160p.web.h265.HDR.Remaster.Mastermind.mov</li>
<li>Taylor.Swift.The.Eras.Tour.Extended.2023.2160p.web.h265.HDR.Remaster.Karma.mov</li>
</ol><br>
<span style="text-decoration: underline">Bonus Era</span><br>
<ol>
<li>Taylor.Swift.The.Eras.Tour.Extended.2023.2160p.web.h265.HDR.Remaster.Intro.mov</li>
<li>Taylor.Swift.The.Eras.Tour.Extended.2023.2160p.web.h265.HDR.Remaster.End.Credits.mov</li>
</ol></div>
</div><br>
<div class="ToggleTriggerAnchor bbCodeSpoilerContainer">
<button type="button" class="button bbCodeSpoilerButton ToggleTrigger Tooltip JsOnly" data-target="> .SpoilerTarget"><span>Spoiler: <span class="SpoilerTitle">MEDIA INFO</span></span></button>
<div class="SpoilerTarget bbCodeSpoilerText">General<br>
<br>
Complete name : Taylor.Swift.The.Eras.Tour.Extended.2023.2160p.web.h265.HDR.Remasters.mov<br>
<br>
Format : MPEG-4<br>
<br>
Format profile : QuickTime<br>
<br>
Codec ID : qt 0000.02 (qt )<br>
<br>
Overall bit rate : 36.1 Mb/s<br>
<br>
Frame rate : 23.976 FPS<br>
<br>
Encoded date : 2023-12-14 15:53:52 UTC<br>
<br>
Tagged date : 2023-12-14 15:53:52 UTC<br>
<br>
Writing application : Lavf60.14.100<br>
<br>
<br>
<br>
Video<br>
<br>
ID : 1<br>
<br>
Format : HEVC<br>
<br>
Format/Info : High Efficiency Video Coding<br>
<br>
Format profile : Main 10@L5@High<br>
<br>
Codec ID : hvc1<br>
<br>
Codec ID/Info : High Efficiency Video Coding<br>
<br>
Bit rate : 35.9 Mb/s<br>
<br>
Width : 3 832 pixels<br>
<br>
Height : 1 600 pixels<br>
<br>
Display aspect ratio : 2.40:1<br>
<br>
Frame rate mode : Constant<br>
<br>
Frame rate : 23.976 (24000/1001) FPS<br>
<br>
Color space : YUV<br>
<br>
Chroma subsampling : 4:2:0 (Type 0)<br>
<br>
Bit depth : 10 bits<br>
<br>
Scan type : Progressive<br>
<br>
Bits/(Pixel*Frame) : 0.244<br>
<br>
Writing library : x265 3.5+1-ce882936d:[Mac OS X][clang 12.0.5][64 bit] 10bit<br>
<br>
Encoding settings : cpuid=2 / frame-threads=3 / wpp / no-pmode / no-pme / no-psnr / no-ssim / log-level=2 / input-csp=1 / input-res=3832x1600 / interlace=0 / total-frames=0 / level-idc=0 / high-tier=1 / uhd-bd=0 / ref=3 / no-allow-non-conformance / no-repeat-headers / annexb / no-aud / no-hrd / info / hash=0 / no-temporal-layers / open-gop / min-keyint=2 / keyint=24 / gop-lookahead=0 / bframes=4 / b-adapt=2 / b-pyramid / bframe-bias=0 / rc-lookahead=20 / lookahead-slices=8 / scenecut=40 / hist-scenecut=0 / radl=0 / no-splice / no-intra-refresh / ctu=64 / min-cu-size=8 / no-rect / no-amp / max-tu-size=32 / tu-inter-depth=1 / tu-intra-depth=1 / limit-tu=0 / rdoq-level=0 / dynamic-rd=0.00 / no-ssim-rd / signhide / no-tskip / nr-intra=0 / nr-inter=0 / no-constrained-intra / strong-intra-smoothing / max-merge=3 / limit-refs=1 / no-limit-modes / me=1 / subme=2 / merange=57 / temporal-mvp / no-frame-dup / no-hme / weightp / no-weightb / no-analyze-src-pics / deblock=0:0 / sao / no-sao-non-deblock / rd=3 / selective-sao=4 / early-skip / rskip / no-fast-intra / no-tskip-fast / no-cu-lossless / b-intra / no-splitrd-skip / rdpenalty=0 / psy-rd=2.00 / psy-rdoq=0.00 / no-rd-refine / no-lossless / cbqpoffs=0 / crqpoffs=0 / rc=abr / bitrate=35452 / qcomp=0.60 / qpstep=4 / stats-write=0 / stats-read=0 / ipratio=1.40 / pbratio=1.30 / aq-mode=2 / aq-strength=1.00 / cutree / zone-count=0 / no-strict-cbr / qg-size=32 / no-rc-grain / qpmax=69 / qpmin=0 / no-const-vbv / sar=1 / overscan=0 / videoformat=5 / range=0 / colorprim=9 / transfer=16 / colormatrix=9 / chromaloc=1 / chromaloc-top=0 / chromaloc-bottom=0 / display-window=0 / cll=0,0 / min-luma=0 / max-luma=1023 / log2-max-poc-lsb=8 / vui-timing-info / vui-hrd-info / slices=1 / no-opt-qp-pps / no-opt-ref-list-length-pps / no-multi-pass-opt-rps / scenecut-bias=0.05 / hist-threshold=0.03 / no-opt-cu-delta-qp / no-aq-motion / no-hdr10 / no-hdr10-opt / no-dhdr10-opt / no-idr-recovery-sei / analysis-reuse-level=0 / analysis-save-reuse-level=0 / analysis-load-reuse-level=0 / scale-factor=0 / refine-intra=0 / refine-inter=0 / refine-mv=1 / refine-ctu-distortion=0 / no-limit-sao / ctu-info=0 / no-lowpass-dct / refine-analysis-type=0 / copy-pic=1 / max-ausize-factor=1.0 / no-dynamic-refine / no-single-sei / no-hevc-aq / no-svt / no-field / qp-adaptation-range=1.00 / scenecut-aware-qp=0conformance-window-offsets / right=0 / bottom=0 / decoder-max-rate=0 / no-vbv-live-multi-pass<br>
<br>
Encoded date : 2023-12-14 15:53:52 UTC<br>
<br>
Tagged date : 2023-12-14 15:53:52 UTC<br>
<br>
Color range : Limited<br>
<br>
Color primaries : BT.2020<br>
<br>
Transfer characteristics : PQ<br>
<br>
Matrix coefficients : BT.2020 non-constant<br>
<br>
Codec configuration box : hvcC<br>
<br>
<br>
<br>
Audio<br>
<br>
ID : 2<br>
<br>
Format : AAC LC<br>
<br>
Format/Info : Advanced Audio Codec Low Complexity<br>
<br>
Codec ID : mp4a-40-2<br>
<br>
Bit rate mode : Constant<br>
<br>
Bit rate : 256 kb/s<br>
<br>
Channel(s) : 2 channels<br>
<br>
Channel layout : L R<br>
<br>
Sampling rate : 48.0 kHz<br>
<br>
Frame rate : 46.875 FPS (1024 SPF)<br>
<br>
Compression mode : Lossy<br>
<br>
Stream size : 7.02 MiB (1%)<br>
<br>
Source stream size : 7.02 MiB (1%)<br>
<br>
Language : English<br>
<br>
Default : Yes<br>
<br>
Alternate group : 1<br>
<br>
Encoded date : 2023-12-14 15:53:52 UTC<br>
<br>
Tagged date : 2023-12-14 15:53:52 UTC</div>
</div><br>
<div class="ToggleTriggerAnchor bbCodeSpoilerContainer">
<button type="button" class="button bbCodeSpoilerButton ToggleTrigger Tooltip JsOnly" data-target="> .SpoilerTarget"><span>Spoiler: <span class="SpoilerTitle">THUMBNAILS</span></span></button>
<div class="SpoilerTarget bbCodeSpoilerText">I have included some thumbnails generated from MPC-BC but they might not showcase the HDR10 range correctly.<br>
<br>
Taylor.Swift.The.Eras.Tour.Extended.2023.2160p.web.h265.HDR.Remaster.Cruel.Summer.mov<br>
<img src="https://imgur.com/4R40ZNG.jpg" class="bbCodeImage LbImage" alt="[​IMG]" data-url="https://imgur.com/4R40ZNG.jpg" style=""><br>
<br>
Taylor.Swift.The.Eras.Tour.Extended.2023.2160p.web.h265.HDR.Remaster.You.Need.To.Calm.Down.mov<br>
<img src="https://imgur.com/2kIu3P6.jpg" class="bbCodeImage LbImage" alt="[​IMG]" data-url="https://imgur.com/2kIu3P6.jpg" style=""><br>
<br>
Taylor.Swift.The.Eras.Tour.Extended.2023.2160p.web.h265.HDR.Remaster.You.Belong.With.Me.mov<br>
<img src="https://imgur.com/vE2GzNA.jpg" class="bbCodeImage LbImage" alt="[​IMG]" data-url="https://imgur.com/vE2GzNA.jpg" style=""><br>
<br>
Taylor.Swift.The.Eras.Tour.Extended.2023.2160p.web.h265.HDR.Remaster.Willow.mov<br>
<img src="https://imgur.com/XyicQRq.jpg" class="bbCodeImage LbImage" alt="[​IMG]" data-url="https://imgur.com/XyicQRq.jpg" style=""><br>
<br>
Taylor.Swift.The.Eras.Tour.Extended.2023.2160p.web.h265.HDR.Remaster.Look.What.You.Made.Me.Do.mov<br>
<img src="https://imgur.com/48RIpzy.jpg" class="bbCodeImage LbImage" alt="[​IMG]" data-url="https://imgur.com/48RIpzy.jpg" style=""><br>
<br>
Taylor.Swift.The.Eras.Tour.Extended.2023.2160p.web.h265.HDR.Remaster.Long.Live.mov<br>
<img src="https://imgur.com/Yu3CM9l.jpg" class="bbCodeImage LbImage" alt="[​IMG]" data-url="https://imgur.com/Yu3CM9l.jpg" style=""><br>
<br>
Taylor.Swift.The.Eras.Tour.Extended.2023.2160p.web.h265.HDR.Remaster.22.mov<br>
<img src="https://imgur.com/i04obTd.jpg" class="bbCodeImage LbImage" alt="[​IMG]" data-url="https://imgur.com/i04obTd.jpg" style=""><br>
<br>
Taylor.Swift.The.Eras.Tour.Extended.2023.2160p.web.h265.HDR.Remaster.The.Last.Great.American.Dynasty.mov<br>
<img src="https://imgur.com/hAWEkCf.jpg" class="bbCodeImage LbImage" alt="[​IMG]" data-url="https://imgur.com/hAWEkCf.jpg" style=""><br>
<br>
Taylor.Swift.The.Eras.Tour.Extended.2023.2160p.web.h265.HDR.Remaster.Blank.Space.mov<br>
<img src="https://imgur.com/RbzFJzx.jpg" class="bbCodeImage LbImage" alt="[​IMG]" data-url="https://imgur.com/RbzFJzx.jpg" style=""><br>
<br>
Taylor.Swift.The.Eras.Tour.Extended.2023.2160p.web.h265.HDR.Remaster.Youre.On.Your.Own.Kid.mov<br>
<img src="https://imgur.com/O3bK1Xz.jpg" class="bbCodeImage LbImage" alt="[​IMG]" data-url="https://imgur.com/O3bK1Xz.jpg" style=""><br>
<br>
Taylor.Swift.The.Eras.Tour.Extended.2023.2160p.web.h265.HDR.Remaster.Karma.mov<br>
<img src="https://imgur.com/CF2lR0V.jpg" class="bbCodeImage LbImage" alt="[​IMG]" data-url="https://imgur.com/CF2lR0V.jpg" style=""><br>
<br>
Taylor.Swift.The.Eras.Tour.Extended.2023.2160p.web.h265.HDR.Remaster.End.Credits.mov<br>
<img src="https://imgur.com/FFK0FEH.jpg" class="bbCodeImage LbImage" alt="[​IMG]" data-url="https://imgur.com/FFK0FEH.jpg" style=""></div>
</div><br>
<div class="ToggleTriggerAnchor bbCodeSpoilerContainer">
<button type="button" class="button bbCodeSpoilerButton ToggleTrigger Tooltip JsOnly" data-target="> .SpoilerTarget"><span>Spoiler: <span class="SpoilerTitle">Download: GoFile</span></span></button>
<div class="SpoilerTarget bbCodeSpoilerText">
<div class="bbCodeBlock bbCodeVfcHH HiddenContent">
<div class="attribution type">Hidden Content:</div>
<blockquote>You must reply before you can see the hidden data contained here.</blockquote>
</div></div>
</div>
<div class="messageTextEndMarker">&nbsp;</div>
</blockquote>
</article>]]></description>
                <author><![CDATA[ilya2129]]></author>
                </item>

                </channel></rss>